<?xml version="1.0" encoding="utf-8"?>
<!-- Generator: Adobe Illustrator 24.0.0, SVG Export Plug-In . SVG Version: 6.00 Build 0)  -->
<svg version="1.1" id="Layer_1" xmlns="http://www.w3.org/2000/svg" xmlns:xlink="http://www.w3.org/1999/xlink" x="0px" y="0px"
	 viewBox="0 0 157 80" style="enable-background:new 0 0 157 80;" xml:space="preserve">
<style type="text/css">
	.st0{fill:#FFFFFF;}
</style>
<path d="M153,3.5v73.1H80V3.5H153 M154,2.5H79v75.1H154L154,2.5L154,2.5z"/>
<rect x="3" y="2.5" width="75.1" height="75.1"/>
<polygon class="st0" points="21.4,54.3 23.4,46.4 25.6,46.4 23.6,54.3 "/>
<polygon class="st0" points="26.3,51.3 26.8,49.4 31.1,49.4 30.6,51.3 "/>
<polygon class="st0" points="43.8,54.3 45.7,46.4 47.9,46.4 45.9,54.3 "/>
<path class="st0" d="M14.7,54.6c-3,0-4.9-0.7-4.9-0.7l1.9-7.4h2.2l-1.5,6c0,0,1.4,0.3,2.6,0.3c1.2,0,2.9-0.4,2.9-0.4l0.3-1.3h2.2
	l-0.8,2.9C19.6,53.9,17.7,54.6,14.7,54.6"/>
<path class="st0" d="M39.4,54.3l0.6-2.5c-0.3-0.4-1.2-1.4-1.9-1.9c-1-0.7-2.2-1.4-2.6-1.5l-1.5,5.9h-2.2l2-7.9h2.2
	c0.8,0.4,2,1,3.4,2.1c0.4,0.3,0.8,0.6,1.2,1l0.8-3h2.2l-2,7.9C41.6,54.3,39.4,54.3,39.4,54.3z"/>
<rect x="80" y="3.5" class="st0" width="73.1" height="73.1"/>
<path class="st0" d="M48.1,54.3l2-7.9h2.2c0.8,0.4,2,1,3.4,2c0.4,0.3,0.8,0.6,1.2,1l0.8-3h2.2l-2,7.9h-2.2l0.6-2.5
	c-0.3-0.4-1.2-1.4-1.9-1.9c-1-0.7-2.2-1.4-2.6-1.5l-1.5,5.9L48.1,54.3L48.1,54.3z"/>
<path class="st0" d="M69.7,53.9c0,0-1.9,0.7-4.9,0.7c-3,0-4.8-0.7-4.8-0.7l1.7-6.9c0,0,1.9-0.7,4.9-0.7s4.8,0.7,4.8,0.7L71,48.8
	c0,0-1.9-0.7-4.6-0.7c-1.4,0-2.8,0.4-2.8,0.4l-0.9,3.9c0,0,1.4,0.3,2.6,0.3c1.2,0,2.8-0.4,2.8-0.4l0.3-1.4c-0.7-0.1-1.6-0.2-2.5-0.2
	c-0.2,0-0.3,0-0.5,0l0.3-1.5c0.1,0,0.4,0,0.6,0c2.2,0,3.9,0.5,4.4,0.7L69.7,53.9z"/>
<path class="st0" d="M24.6,32.4c-4.9,3.4-10.5,8.4-11.5,9.4c0.1,0,0.9,0,1,0c1.6,0,2.1-0.2,3.4-1.1c0.3-0.2,1.2-0.7,1.5-0.9
	c5.8-3.8,9.3-5.1,14.2-4.6c4.2,0.4,8.5,2.2,13.4,4.5c4.8,2.2,6.2,2.8,10.2,1.2c7.4-2.9,13.9-6.8,14.7-7.3c0,0-5.7-1.3-13.4-2.5
	c-9.4-1.5-19.2-2.4-29.5-0.5C27.1,30.9,26.2,31.3,24.6,32.4"/>
<path class="st0" d="M21.3,28.9c-2,1.9-7.8,8.2-11.8,12.9h2.2c0.3-0.3,0.7-0.7,1-1c5.1-5,11.2-10.6,20.5-15.4c0,0-3.7-0.2-7.8,0.9
	C23.7,26.8,22.7,27.4,21.3,28.9"/>
<path d="M97.4,31.9l2.8-1.6c0.5,1.1,1.3,1.9,2.9,1.9c1.5,0,1.9-0.6,1.9-1.1c0-0.9-0.8-1.2-2.9-1.8c-2.1-0.6-4.1-1.6-4.1-4.2
	c0-2.7,2.3-4.2,4.7-4.2c2.3,0,4.1,1.1,5.1,3.1l-2.7,1.6c-0.5-1-1.1-1.6-2.4-1.6c-1,0-1.5,0.5-1.5,1c0,0.6,0.3,1.1,2.5,1.7
	c2.1,0.6,4.5,1.4,4.5,4.3c0,2.7-2.2,4.3-5.2,4.3C100,35.3,98.1,33.9,97.4,31.9z"/>
<path d="M120.6,24.2H117V35h-3.2V24.2h-3.6v-3.1h10.3L120.6,24.2L120.6,24.2z"/>
<path d="M123.8,30.5v-9.4h3.2v9.1c0,1,0.5,2,2.2,2c1.7,0,2.2-0.9,2.2-2v-9.1h3.2v9.4c0,3-2.3,4.8-5.4,4.8S123.8,33.5,123.8,30.5z"/>
<path d="M110.4,51.9c0,3.9-2.9,7-6.8,7h-5.6V45h5.6C107.5,45,110.4,48,110.4,51.9z M107.3,51.9c0-2.4-1.5-3.9-3.7-3.9h-2.4v7.8h2.4
	C105.8,55.8,107.3,54.3,107.3,51.9z"/>
<path d="M117.4,45v13.9h-3.2V45H117.4z"/>
<path d="M121.2,51.9c0-4.1,3.2-7.2,7.2-7.2s7.2,3.1,7.2,7.2s-3.2,7.2-7.2,7.2C124.4,59.2,121.2,56,121.2,51.9z M132.4,51.9
	c0-2.5-1.8-4.1-4.1-4.1s-4.1,1.7-4.1,4.1c0,2.5,1.8,4.1,4.1,4.1C130.7,56.1,132.4,54.4,132.4,51.9z"/>
</svg>
